<?xml version="1.0" encoding="UTF-8" standalone="no"?>
<svg width="116px" height="85px" viewBox="0 0 116 85" version="1.1" xmlns="http://www.w3.org/2000/svg" xmlns:xlink="http://www.w3.org/1999/xlink" xmlns:sketch="http://www.bohemiancoding.com/sketch/ns">
    <!-- Generator: Sketch Beta 3.4 (15575) - http://www.bohemiancoding.com/sketch -->
    <title>Logo</title>
    <desc>Created with Sketch Beta.</desc>
    <defs></defs>
    <g id="Recipes" stroke="none" stroke-width="1" fill="none" fill-rule="evenodd" sketch:type="MSPage">
        <g id="New-Recipe" sketch:type="MSArtboardGroup" transform="translate(-31.000000, -33.000000)" fill="#FFFFFF">
            <g id="Sidebar" sketch:type="MSLayerGroup">
                <path d="M31.1353067,99.5400612 C31.1353067,99.2799516 31.3296506,99.0458359 31.5723411,99.0458359 L37.1547015,99.0458359 C41.8393783,99.0458359 45.6742393,103.130121 45.6742393,108.124704 C45.6742393,113.171445 41.8393783,117.25573 37.1547015,117.25573 L31.5723411,117.25573 C31.3296506,117.25573 31.1353067,117.021443 31.1353067,116.761334 L31.1353067,99.5400612 L31.1353067,99.5400612 Z M36.8149986,114.784432 C40.3829161,114.784432 42.9800715,111.974873 42.9800715,108.124704 C42.9800715,104.300699 40.3829161,101.517133 36.8149986,101.517133 L33.6110371,101.517133 L33.6110371,114.784432 L36.8149986,114.784432 L36.8149986,114.784432 Z M51.2554828,116.579206 L58.7069271,99.0718297 C58.7796864,98.9158666 58.9981238,98.7857263 59.1193893,98.7857263 L59.3620798,98.7857263 C59.4835048,98.7857263 59.7021018,98.9158666 59.7748611,99.0718297 L67.1776396,116.579206 C67.3234773,116.917468 67.1291334,117.25573 66.7651774,117.25573 L65.235956,117.25573 C64.9447593,117.25573 64.7748281,117.099596 64.6776561,116.86548 L63.1728473,113.301586 L55.2358624,113.301586 C54.750641,114.498158 54.2408473,115.668737 53.7554663,116.86548 C53.6825475,117.047437 53.4883631,117.25573 53.1971664,117.25573 L51.667945,117.25573 C51.303989,117.25573 51.1098047,116.917468 51.2554828,116.579206 L51.2554828,116.579206 L51.2554828,116.579206 Z M62.2505915,111.064233 L59.2650674,103.936614 L59.1438019,103.936614 L56.1825309,111.064233 L62.2505915,111.064233 L62.2505915,111.064233 Z M75.4284787,99.5400612 C75.4284787,99.2799516 75.622663,99.0458359 75.8896066,99.0458359 L81.4237799,99.0458359 C84.4091444,99.0458359 86.8606217,101.647274 86.8606217,104.794925 C86.8606217,108.020728 84.4091444,110.64816 81.448033,110.64816 L77.9284622,110.64816 L77.9284622,116.761334 C77.9284622,117.021443 77.7101843,117.25573 77.4674938,117.25573 L75.8896066,117.25573 C75.622663,117.25573 75.4284787,117.021443 75.4284787,116.761334 L75.4284787,99.5400612 L75.4284787,99.5400612 Z M81.2781018,108.09871 C82.9528418,108.09871 84.3606382,106.642028 84.3606382,104.768931 C84.3606382,102.99998 82.9528418,101.647274 81.2781018,101.647274 L77.9284622,101.647274 L77.9284622,108.09871 L81.2781018,108.09871 L81.2781018,108.09871 Z M95.1845392,99.5400612 C95.1845392,99.2799516 95.3787235,99.0458359 95.6456671,99.0458359 L101.179681,99.0458359 C104.165045,99.0458359 106.616523,101.647274 106.616523,104.794925 C106.616523,108.020728 104.165045,110.64816 101.203934,110.64816 L97.6845227,110.64816 L97.6845227,116.761334 C97.6845227,117.021443 97.4660853,117.25573 97.2233948,117.25573 L95.6456671,117.25573 C95.3787235,117.25573 95.1845392,117.021443 95.1845392,116.761334 L95.1845392,99.5400612 L95.1845392,99.5400612 Z M101.034003,108.09871 C102.708743,108.09871 104.116539,106.642028 104.116539,104.768931 C104.116539,102.99998 102.708743,101.647274 101.034003,101.647274 L97.6845227,101.647274 L97.6845227,108.09871 L101.034003,108.09871 L101.034003,108.09871 Z M114.94044,99.5400612 C114.94044,99.2799516 115.134624,99.0458359 115.401728,99.0458359 L125.110305,99.0458359 C125.377409,99.0458359 125.571593,99.2799516 125.571593,99.5400612 L125.571593,100.996914 C125.571593,101.257024 125.377409,101.49114 125.110305,101.49114 L117.440583,101.49114 L117.440583,106.797991 L123.921106,106.797991 C124.163796,106.797991 124.382234,107.032107 124.382234,107.292387 L124.382234,108.749069 C124.382234,109.035173 124.163796,109.243466 123.921106,109.243466 L117.440583,109.243466 L117.440583,114.836249 L125.110305,114.836249 C125.377409,114.836249 125.571593,115.070536 125.571593,115.330646 L125.571593,116.761334 C125.571593,117.021443 125.377409,117.25573 125.110305,117.25573 L115.401728,117.25573 C115.134624,117.25573 114.94044,117.021443 114.94044,116.761334 L114.94044,99.5400612 L114.94044,99.5400612 Z M134.575076,99.5400612 C134.575076,99.2799516 134.76926,99.0458359 135.036204,99.0458359 L141.638151,99.0458359 C144.550757,99.0458359 146.929315,101.517133 146.929315,104.612797 C146.929315,107.006113 145.448759,108.983185 143.337144,109.893654 L146.662371,116.501224 C146.832303,116.839486 146.662371,117.25573 146.249909,117.25573 L144.356572,117.25573 C144.162388,117.25573 144.016869,117.12559 143.968204,117.021443 L140.740149,110.12777 L137.075059,110.12777 L137.075059,116.761334 C137.075059,117.021443 136.856622,117.25573 136.613931,117.25573 L135.036204,117.25573 C134.76926,117.25573 134.575076,117.021443 134.575076,116.761334 L134.575076,99.5400612 L134.575076,99.5400612 Z M141.443967,107.890588 C143.021695,107.890588 144.405238,106.4599 144.405238,104.664955 C144.405238,102.973987 143.021695,101.569292 141.443967,101.569292 L137.123565,101.569292 L137.123565,107.890588 L141.443967,107.890588 L141.443967,107.890588 Z M87.9628611,76.0660688 L87.9628611,79.5447994 L90.5158184,79.5447994 L90.5158184,76.0658978 C90.0371389,75.5060038 89.6122311,74.9079741 89.2394993,74.2752288 C88.866608,74.9081451 88.4415406,75.5061748 87.9628611,76.0660688 L87.9628611,76.0660688 Z M87.7557524,40.6810753 C88.153216,40.3744504 88.5659972,40.0864658 88.9939367,39.8198578 L89.234553,39.6700511 L89.4751692,39.8198578 C89.8962476,40.0821905 90.3024869,40.3653868 90.6940468,40.6665393 C91.561414,39.6635526 92.5476534,38.772921 93.6350536,38.0230324 C92.4964347,36.2198795 91.0005612,34.6677726 89.218597,33.5067707 C87.4364732,34.6677726 85.9404402,36.2198795 84.8018212,38.0230324 C85.8946465,38.7765122 86.8853535,39.6719322 87.7557524,40.6810753 L87.7557524,40.6810753 Z M91.4572215,41.2941541 C93.5144264,43.097478 95.0886437,45.4417135 96.0410564,48.066409 C96.1064759,48.2468269 96.1695021,48.4282709 96.2290179,48.611254 C96.3154993,48.5407969 96.4024594,48.471024 96.4905365,48.4024481 C96.6595103,48.2709397 96.8310371,48.1433645 97.0049574,48.0192097 C98.1778817,47.1815918 99.4610619,46.5131051 100.822746,46.0462417 C99.9555378,42.874307 98.1451719,40.0267826 95.6049794,38.0081543 C95.3886162,38.1213644 95.1768803,38.241757 94.9673783,38.3659119 C94.8309546,38.4468007 94.6958074,38.5299126 94.5622558,38.6154187 C94.4216836,38.7053711 94.282707,38.7975467 94.1454856,38.8922875 C93.154619,39.5765074 92.2531059,40.3848822 91.4572215,41.2941541 L91.4572215,41.2941541 Z M81.9208088,48.1406284 C82.0489354,48.2348561 82.1756259,48.331307 82.3010399,48.429639 C82.3342283,48.331649 82.3672572,48.233488 82.4020413,48.136182 C83.3490289,45.490794 84.9269161,43.1272341 86.9935351,41.3098873 C86.1941403,40.3942878 85.288,39.5804407 84.2915488,38.8922875 C84.1543274,38.7975467 84.0153508,38.7053711 83.8747785,38.6154187 C83.741227,38.5299126 83.6062393,38.4468007 83.4696561,38.3660829 C83.2601541,38.241928 83.0484182,38.1213644 82.8322146,38.0081543 C80.317392,40.0064321 78.517238,42.8166759 77.639978,45.9499618 C78.9802806,46.3780054 80.2481431,46.9987798 81.4137276,47.7847519 C81.5847758,47.9001852 81.7542283,48.0181836 81.9208088,48.1406284 L81.9208088,48.1406284 Z M87.0999615,52.5128978 C87.2544154,52.3791662 87.4114223,52.2485129 87.5711417,52.1211088 C88.0273232,51.7570238 88.5037689,51.4168805 89.0015956,51.1066643 L89.2304044,50.9568576 L89.4622448,51.1066643 C89.9504979,51.410724 90.4181678,51.7435138 90.8663714,52.0993902 C91.0262503,52.2264523 91.1832572,52.3565926 91.3378707,52.4898111 C91.4916864,52.6223456 91.6431087,52.7574453 91.7914993,52.8959652 C91.9580798,53.0510732 92.1221073,53.2089175 92.2818267,53.3712081 C93.1244622,51.8332952 94.1931939,50.4616062 95.4353673,49.3031694 C94.5887428,46.4818098 92.9909106,43.9547622 90.8253645,42.0657613 C90.6991527,41.9554584 90.5711857,41.8472076 90.4409849,41.7415221 C90.3166878,41.6404539 90.1906355,41.5414378 90.0628281,41.4444739 C89.7939697,41.2404563 89.5180908,41.0449893 89.234553,40.8602961 C88.9438349,41.0496067 88.661414,41.250375 88.3861733,41.459865 C88.2585254,41.5571709 88.1326327,41.656529 88.0083356,41.7577683 C87.8784539,41.8637958 87.7506465,41.9722176 87.6244347,42.0826915 C85.5215956,43.923638 83.9550371,46.3663766 83.0958074,49.0960736 C84.3834553,50.2509191 85.4947895,51.6304747 86.3726878,53.1848048 C86.4631582,53.0957074 86.5542669,53.0074651 86.6468116,52.9205909 C86.7950426,52.781558 86.9463054,52.6459453 87.0999615,52.5128978 L87.0999615,52.5128978 Z M96.5331389,49.6561386 C96.4441045,49.7322391 96.3563466,49.8102207 96.2689078,49.8885443 C96.2235928,49.9292452 96.1774801,49.969091 96.1326437,50.010476 C95.9939862,50.1380511 95.8580413,50.2692175 95.7238514,50.402436 C95.6951307,50.430824 95.6672077,50.4602381 95.6386465,50.4889682 C94.5925722,51.5454817 93.6921761,52.7697581 92.9784649,54.1274241 C93.2401431,54.4304578 93.4893755,54.7447783 93.7283961,55.0673073 C93.8353012,55.2118126 93.940132,55.3581991 94.0424099,55.5062957 C94.141337,55.6490909 94.2378707,55.7937672 94.3321706,55.9399827 C94.7968088,56.6599441 95.2073563,57.4183833 95.5595048,58.2079467 C95.665293,58.4451407 95.7666135,58.6845578 95.8617111,58.9270531 C95.9087813,59.0471037 95.9537772,59.1680093 95.9981348,59.289257 C96.0981788,59.2271796 96.1994993,59.1674963 96.3006602,59.107813 C97.365403,58.4815663 98.4934911,57.9933264 99.6595543,57.6535251 C99.8700138,57.5921317 100.081909,57.5365528 100.294922,57.4849071 C100.487351,57.4380497 100.680737,57.3958097 100.874922,57.3569899 C102.475626,57.036684 104.12723,56.9879456 105.765909,57.2292438 C105.990889,53.439442 104.901414,49.6229623 102.630399,46.5996372 C102.412759,46.6468366 102.197194,46.7012185 101.982905,46.7590206 C101.831004,46.7998925 101.679901,46.8435007 101.529755,46.889674 C101.372748,46.9378994 101.216699,46.9890321 101.061766,47.0429009 C99.5299917,47.575262 98.1036864,48.3766252 96.8378982,49.4013304 C96.7351417,49.4844424 96.6338212,49.5699485 96.5331389,49.6561386 L96.5331389,49.6561386 Z M77.5576451,57.3465582 C77.7513508,57.3846939 77.944099,57.4264209 78.1362091,57.4722522 C78.3482641,57.5230428 78.5593618,57.5769116 78.7691829,57.6371079 C79.9483301,57.9755411 81.0887043,58.4656621 82.1649354,59.0965262 C82.2697662,59.1580906 82.3744374,59.219655 82.4781513,59.2837846 C82.5209133,59.1668122 82.5641541,59.0498399 82.6093095,58.9338936 C82.7042476,58.6910563 82.8054085,58.4509551 82.9108776,58.2134191 C83.2585585,57.4310382 83.6632022,56.6792685 84.1211389,55.9651215 C84.2152792,55.818393 84.3114938,55.6733746 84.4101018,55.5298954 C84.5120605,55.3814568 84.6162531,55.2348993 84.7229986,55.0900519 C85.020099,54.6868051 85.3355488,54.2980943 85.6680715,53.9251167 C84.8988336,52.5128978 83.926795,51.2492885 82.7977497,50.1755028 C82.766795,50.1460887 82.7363191,50.1165035 82.705205,50.0874315 C82.6005337,49.9896125 82.4944264,49.8936746 82.3872022,49.7991049 C82.2952957,49.7180451 82.2021128,49.6385244 82.1084512,49.5598588 C82.0684017,49.5265114 82.0288308,49.492651 81.9887813,49.4596456 C81.8464539,49.3428443 81.7025309,49.2282661 81.556055,49.1172791 C80.2988831,48.163886 78.8955543,47.4246002 77.396011,46.9421747 C77.2404402,46.8920681 77.083912,46.8452108 76.9264264,46.8007476 C76.7753232,46.7581656 76.6232627,46.7181487 76.470564,46.680697 C76.356,46.652651 76.241436,46.624776 76.1259147,46.5996372 C73.8623989,49.6130436 72.7721265,53.4143032 72.9878514,57.1917921 C74.5202641,56.9958121 76.0608143,57.0529302 77.5576451,57.3465582 L77.5576451,57.3465582 Z M82.5494746,49.2665728 C82.5472407,49.2535759 82.5450069,49.24075 82.542773,49.227753 C82.5403796,49.2366457 82.5375076,49.2453673 82.5349546,49.2540889 C82.5397414,49.2583642 82.5445282,49.2624685 82.5494746,49.2665728 L82.5494746,49.2665728 Z M89.0799395,67.5828366 C89.0895131,67.6096855 89.0990867,67.6363635 89.1085007,67.6632124 C89.1555708,67.7240927 89.2042366,67.783605 89.2497111,67.8458534 C89.2868886,67.7950628 89.3269381,67.7466663 89.3650729,67.6965598 C89.379912,67.6541487 89.394751,67.6117377 89.4099092,67.5693267 C89.5089959,67.2921159 89.614784,67.0181543 89.727912,66.7476129 C89.9672517,66.174038 90.2378652,65.6163671 90.5375186,65.0763105 C90.6539972,64.8664785 90.7751032,64.6595537 90.9001981,64.4553651 C91.029282,64.2451911 91.1629931,64.0380953 91.3013315,63.8339067 C91.333403,63.7865364 91.3654746,63.7388239 91.3981843,63.6916246 C91.4936011,63.5539597 91.590773,63.417321 91.6903384,63.2825633 C91.7895846,63.1481477 91.890586,63.0151002 91.9939807,62.8837628 C92.2716149,62.5314777 92.5636094,62.1908213 92.8699642,61.8624779 C93.5192132,61.1664581 94.2215956,60.5436316 94.9640275,59.9931433 C95.0342338,59.9411556 95.1039615,59.8884838 95.1749656,59.8376932 C95.1513508,59.7709984 95.1259807,59.7051587 95.1014085,59.638635 C94.7355378,58.6476191 94.2760055,57.6993564 93.7287153,56.8107769 C93.6384044,56.6640484 93.5450619,56.5192011 93.4499642,56.3755508 C93.3523136,56.2283093 93.2517909,56.0831199 93.1493535,55.9392986 C92.9451169,55.6530242 92.7311472,55.3742742 92.5080825,55.1033909 C92.3939972,54.9647 92.2775186,54.8278902 92.1584869,54.6934746 C92.0431252,54.5629923 91.9258487,54.4345621 91.8060193,54.3083551 C91.7589491,54.2585905 91.7115598,54.20951 91.6638514,54.1606005 C91.5253535,54.0186604 91.3835048,53.8799695 91.2394223,53.7436727 C91.0943824,53.6066919 90.9469491,53.4721053 90.7961651,53.3409389 C90.2991362,52.908278 89.7730674,52.5084515 89.218597,52.1471026 C88.6641265,52.5084515 88.1378982,52.908449 87.6408693,53.34111 C87.4902448,53.4721053 87.342652,53.6066919 87.1976121,53.7438437 C87.0785805,53.8561988 86.9616231,53.9706059 86.8464209,54.0868943 C86.8221678,54.11152 86.797436,54.1358037 86.7733425,54.1606005 C86.6769684,54.2592746 86.5823494,54.3594877 86.4886878,54.460898 C86.3688583,54.5908673 86.2509436,54.7223757 86.1357414,54.8566203 C85.837205,55.2039461 85.5544649,55.5652949 85.2876809,55.9394696 C85.1852435,56.0831199 85.0847208,56.2283093 84.9870702,56.3755508 C84.8919725,56.5192011 84.7987895,56.6640484 84.7083191,56.8107769 C84.1691664,57.6863595 83.7150591,58.6200862 83.3517414,59.5953689 C83.3250949,59.667023 83.2973315,59.7381641 83.2718019,59.8101602 C83.3480715,59.8643711 83.4229051,59.9209761 83.4983769,59.9767261 C84.2492655,60.5311477 84.9589876,61.1596176 85.6149381,61.8624779 C85.9134746,62.1824417 86.1981293,62.5145475 86.469381,62.857427 C86.5729354,62.9880803 86.6747345,63.1202727 86.7741403,63.2543463 C86.8738652,63.3887619 86.9713563,63.5252297 87.0669326,63.6627235 C87.1835708,63.8303155 87.2963796,64.0006437 87.406795,64.1726819 C87.5397084,64.3799488 87.6686327,64.5896097 87.7922916,64.802862 C87.9133975,65.0116679 88.0297166,65.223552 88.1418872,65.4378304 C88.3676644,65.8698072 88.5760495,66.3120448 88.7643301,66.7643721 C88.8765007,67.0338874 88.9814911,67.3068229 89.0799395,67.5828366 L89.0799395,67.5828366 Z M75.5197469,69.2483246 C75.60926,69.0937296 75.6911142,68.9336622 75.7659477,68.7691484 C75.9650784,68.4103648 76.1883026,68.0688534 76.4314718,67.7454692 C76.5294415,67.6153289 76.6306025,67.4880959 76.7352737,67.364112 C76.8450509,67.2339717 76.9583384,67.1072516 77.0751362,66.9844649 C78.2424759,65.7569392 79.7511142,64.901194 81.4349491,64.5969633 C81.5783934,64.5711404 81.7234333,64.5502769 81.8694305,64.5323206 C82.0283521,64.5129963 82.1885502,64.4984602 82.3500248,64.4890546 C82.5006492,64.4801619 82.651912,64.4745185 82.8046107,64.4745185 C83.1275598,64.4745185 83.4458817,64.49504 83.7590977,64.5340308 C84.2894746,64.6002125 84.8034168,64.7233413 85.2978927,64.8931564 C85.3929904,64.9258198 85.4882476,64.9579701 85.5817497,64.9940536 C85.8498102,65.0978581 86.1103714,65.2177376 86.3643906,65.3497591 C86.6080385,65.4763081 86.8440275,65.6163671 87.0734746,65.7673709 C87.1471912,65.8159384 87.2210674,65.8641638 87.293348,65.9152965 C87.2363851,65.8068747 87.1791032,65.698624 87.1197469,65.5917414 C87.0361376,65.4412506 86.9498157,65.292299 86.8614195,65.1448864 C86.6989876,64.8741741 86.5274608,64.6094472 86.3489133,64.3495086 C86.2542944,64.2118437 86.1574415,64.075889 86.0583549,63.9416444 C85.9599065,63.8075709 85.8590646,63.6753784 85.7561486,63.5448961 C85.4963851,63.2153555 85.2246547,62.8950497 84.9380853,62.5880827 C84.8382008,62.4808581 84.7364017,62.3761986 84.6338047,62.2725652 C84.2783054,61.9137815 83.9078074,61.5763744 83.5237469,61.2617119 C83.335945,61.1078009 83.1444732,60.9607304 82.9504484,60.8175932 C82.8776891,60.7638954 82.8047703,60.7101975 82.7312132,60.6580388 C82.6634003,60.6099844 82.5949491,60.562956 82.5263384,60.5160987 C82.4025199,60.4316186 82.277425,60.3491907 82.1513728,60.268815 C81.3148006,59.7357699 80.4327538,59.2957555 79.5191142,58.9559542 C79.2757854,58.8654887 79.0299037,58.7832318 78.7827455,58.7067894 C78.5686162,58.6406076 78.3530509,58.5797273 78.1363686,58.5243193 C76.4935406,58.1041423 74.7803466,57.9931554 73.0788006,58.2137611 C72.918762,58.2346246 72.7588831,58.2583953 72.5990041,58.2849022 C72.4435928,58.3108961 72.2883411,58.3396261 72.1330894,58.3712634 C71.8935901,58.4200019 71.6545695,58.4735287 71.4165062,58.5356061 C70.4219697,62.9070205 71.2858267,67.5212722 73.6932655,71.1262098 C74.4398459,70.6755926 75.0691499,70.0276273 75.5197469,69.2483246 L75.5197469,69.2483246 Z M100.293326,58.5378293 C100.075367,58.5944343 99.8591637,58.6577089 99.6439175,58.7252587 C99.3950041,58.8034113 99.1478459,58.8875493 98.9030812,58.9798959 C98.0089078,59.317474 97.14537,59.750648 96.3257111,60.2737743 C96.1888088,60.3611616 96.0531829,60.451285 95.9188336,60.5436316 C95.8562861,60.5867267 95.7935791,60.6293088 95.7316699,60.6732589 C95.65189,60.7300349 95.5733865,60.7886921 95.4947235,60.8471783 C95.3054856,60.9877504 95.1180028,61.1320847 94.9348281,61.2830885 C94.5453425,61.6037364 94.1703769,61.948326 93.8104099,62.3146342 C93.7218542,62.4047576 93.633458,62.4952231 93.5468171,62.5880827 C93.2530674,62.9029162 92.974795,63.2314307 92.7092875,63.5696929 C92.6065309,63.7006882 92.5058487,63.8332227 92.4074003,63.9676383 C92.3087923,64.1022249 92.212099,64.2385217 92.1177992,64.3763575 C91.9544099,64.6152616 91.795967,64.8577569 91.6462999,65.1058956 C91.6161431,65.1556602 91.5877414,65.2067928 91.5583824,65.2568994 C91.4367978,65.4634822 91.3198404,65.6728011 91.2078294,65.8848563 C91.1993728,65.9009314 91.1904374,65.9168356 91.1819807,65.9327397 C91.1928308,65.9252152 91.2032022,65.9168356 91.2140523,65.909311 C91.3549436,65.810124 91.4980688,65.7143571 91.6448638,65.6244047 C91.7860743,65.5378725 91.9301568,65.4562997 92.0764732,65.3788311 C92.3354388,65.2415083 92.6022228,65.1183795 92.875868,65.0104708 C92.9688913,64.9738742 93.0638294,64.9413819 93.1582889,64.9083765 C93.6403191,64.7397585 94.141337,64.6162876 94.6583109,64.5461726 C94.9976946,64.5001704 95.3433012,64.4745185 95.694652,64.4745185 C95.8262889,64.4745185 95.9568088,64.4789648 96.0870096,64.4856343 C96.2483246,64.4938429 96.4085227,64.5063268 96.5672847,64.5244541 C96.7274828,64.5425814 96.8862448,64.565668 97.0434113,64.593543 C98.7984099,64.9056403 100.363692,65.8166224 101.552572,67.1231558 C101.666498,67.2483367 101.776754,67.3769379 101.883499,67.5091304 C101.985777,67.6358504 102.085183,67.7656487 102.180919,67.8986962 C102.380369,68.176249 102.565298,68.4664568 102.733315,68.7689774 C102.808149,68.9336622 102.890003,69.0935586 102.979516,69.2481536 C103.428039,70.0238651 104.053513,70.6696072 104.795626,71.1198824 C107.199873,67.5161419 108.062294,62.9046263 107.068396,58.5356061 C106.918091,58.4962733 106.767307,58.4598477 106.616363,58.4259873 C106.46159,58.3911008 106.306817,58.3594636 106.151725,58.3302205 C105.992325,58.3002933 105.832605,58.2737864 105.672886,58.2498447 C103.864594,57.9781063 102.038591,58.0837919 100.293326,58.5378293 L100.293326,58.5378293 Z M83.1052215,60.3033595 C83.101392,60.3006233 83.097403,60.2977161 83.0935736,60.2948088 C83.0961265,60.3014783 83.0989986,60.3081478 83.1017111,60.3148173 C83.1029876,60.311055 83.1041045,60.3072927 83.1052215,60.3033595 L83.1052215,60.3033595 Z M107.271675,72.8436855 C106.509139,72.8436855 105.771334,72.6901166 105.087461,72.4043552 C104.977205,72.5522807 104.863598,72.6978121 104.748396,72.8421464 C104.863439,72.6978121 104.977045,72.5522807 105.087301,72.4043552 C104.934124,72.3403966 104.783659,72.2699396 104.636385,72.192642 C104.48975,72.1158575 104.346944,72.0312065 104.20685,71.9417671 C103.918366,72.3171389 103.612171,72.6796848 103.287945,73.0271817 L103.287466,73.0266686 C103.611851,72.6790008 103.918206,72.3167969 104.20685,71.9412541 C103.39134,71.4206929 102.688319,70.6923518 102.165761,69.7887233 C102.068429,69.6204472 101.976204,69.4425945 101.891477,69.2597825 C101.762393,69.029771 101.619906,68.8110464 101.470718,68.5989912 C101.376418,68.4650887 101.278448,68.3347774 101.176809,68.2083993 C101.070382,68.0760359 100.960286,67.9477767 100.846201,67.8239639 C99.7873618,66.6739067 98.4116369,65.8975112 96.9226245,65.6185903 C96.7204622,65.5807966 96.5167043,65.5520665 96.3111912,65.5329131 C96.106795,65.5137598 95.9016011,65.5005918 95.694652,65.5005918 C95.6759835,65.5005918 95.6576341,65.5021309 95.6389656,65.502302 C94.3072792,65.5130757 93.0349491,65.9103371 91.9335076,66.6332058 C91.7922971,66.7258944 91.6531609,66.8225163 91.5176946,66.9258077 C91.5176946,66.9258077 91.5175351,66.9251236 91.5173755,66.9247816 C91.3838239,67.0267049 91.251868,67.1311934 91.1245392,67.2432064 C91.1240605,67.2416672 91.1234223,67.2402992 91.1229436,67.23876 C90.942641,67.3976304 90.7691994,67.573944 90.602619,67.7449562 C90.5679945,67.7449562 90.5158184,67.8308043 90.5158184,67.868598 C90.3562586,67.979414 90.311901,68.0938211 90.2179202,68.2114775 C90.1901568,68.2939054 90.1651059,68.3756493 90.1387785,68.4585902 L90.1335131,68.4628655 C89.9691664,68.9781253 89.8260413,69.5038169 89.713392,70.0384011 L89.3524677,71.7801606 L89.3500743,71.7827257 L89.2463604,72.2557455 L89.2442861,72.2473659 L89.709403,70.0384011 C89.8220523,69.5038169 89.961348,68.9781253 90.1253755,68.4628655 C90.1523411,68.3785565 90.1817001,68.2952735 90.2101018,68.2114775 C90.140055,68.2992068 90.0703274,68.3869361 90.0036314,68.4782566 L89.2497111,69.5106574 L89.1030757,69.309889 L89.0974911,69.3021935 L88.4957909,68.4784276 C88.4207978,68.3756493 88.342773,68.2764622 88.2637909,68.1784722 C88.0472682,67.910154 87.8157469,67.6608182 87.5716204,67.4297807 C87.4463659,67.3112692 87.3174415,67.1984012 87.1856451,67.0901504 C87.051934,66.9801896 86.9153508,66.8751881 86.7754168,66.776001 C85.6122256,65.9518931 84.2422448,65.5005918 82.8046107,65.5005918 C82.8018982,65.5005918 82.7991857,65.5009339 82.7966327,65.5009339 C82.5735681,65.5012759 82.352099,65.516496 82.1319065,65.5388986 C81.9394773,65.558394 81.7484842,65.5859269 81.5592462,65.6218395 C80.1329409,65.8927229 78.8097111,66.6176437 77.7720935,67.6926265 C77.6544979,67.8142162 77.5412105,67.9409362 77.4314333,68.0714185 C77.3272407,68.1948894 77.226718,68.3222935 77.1298652,68.4534598 C79.1937717,70.4173642 81.7478459,71.786146 84.5438129,72.3309909 L84.8136286,72.3836627 L84.8131499,72.3845177 L84.5415791,72.3309909 C81.7456121,71.786146 79.1926547,70.4173642 77.1287483,68.4534598 C76.9401486,68.7087811 76.7657497,68.9774413 76.6071472,69.2599535 C76.5221018,69.4432786 76.4303549,69.6211313 76.3330234,69.7890653 C75.8085502,70.6962851 75.1021788,71.4271913 74.2829986,71.9480946 L74.2831582,71.9480946 C74.1427455,72.0373629 73.9999395,72.122014 73.8531444,72.1984564 C73.7055516,72.2754119 73.5547675,72.3451849 73.4014305,72.4089725 L73.4011114,72.4084595 C72.7202696,72.6913137 71.9864539,72.8438566 71.228066,72.8438566 C69.0540633,72.8438566 67.1463659,71.6004267 66.0913563,69.7422079 C66.6052985,72.1040577 67.7246107,74.2704405 69.3660028,76.0250259 C71.6839285,78.5029929 74.7677414,79.8678415 78.0497276,79.8678415 C78.3122036,79.8678415 78.5060688,79.8627111 78.6991362,79.8515953 C81.8938432,79.6682702 84.9312242,78.1443803 87.0055021,75.6710306 C87.1650619,75.4817201 87.3246217,75.2867661 87.4841816,75.0863398 C87.6437414,74.8718905 87.8033012,74.6514557 87.9628611,74.4246935 C88.1224209,74.1979313 88.2816616,73.9648417 88.4220743,73.7264506 L88.6387565,73.3883595 L88.8737882,72.9596318 L88.8741073,72.9599739 L89.1169574,72.5324433 L87.9628611,71.3904237 L89.1260523,72.5324433 L89.2406162,72.3533935 L89.3355543,72.4932815 L90.5158184,71.3285173 L89.340022,72.4932815 L89.6095186,72.9438987 L89.6072847,72.9459509 L89.8606657,73.3883595 L90.0671362,73.7264506 C90.2073893,73.9644996 90.3562586,74.1977603 90.5158184,74.4241805 C90.6753783,74.6511137 90.8349381,74.8715485 90.9944979,75.0861688 C91.1540578,75.2865951 91.3136176,75.4817201 91.4731774,75.6712016 C93.5474553,78.1462615 96.5956864,79.6711774 99.7897552,79.8543315 C100.030371,79.8681835 100.24466,79.874853 100.453524,79.874853 C103.734872,79.874853 106.81677,78.5089784 109.135015,76.0287881 C110.776726,74.2723216 111.89556,72.1042287 112.409343,69.7408398 C111.354492,71.5995716 109.445838,72.8436855 107.271675,72.8436855 L107.271675,72.8436855 Z M86.482784,69.9003942 C86.4457662,69.9681151 86.4042806,70.0339548 86.3621568,70.0994525 C86.4033232,70.0264302 86.445447,69.9540921 86.485337,69.8805568 C86.5304924,69.7974449 86.5730949,69.7129648 86.6166547,69.6291689 C86.5724567,69.7204894 86.5277799,69.8116389 86.4807098,69.8981711 L86.482784,69.9003942 L86.482784,69.9003942 Z M75.197436,73.0266686 L75.1969574,73.0271817 C74.9229931,72.7337247 74.6649849,72.4272708 74.4165502,72.1136344 C74.6649849,72.4272708 74.9233122,72.7330406 75.197436,73.0266686 L75.197436,73.0266686 L75.197436,73.0266686 Z M87.2274498,70.652164 L87.2588831,70.652164 L87.4841816,70.876874 L87.4841816,70.9129576 L87.2274498,70.652164 L87.2274498,70.652164 Z M87.9301513,70.652164 L87.7260743,70.4746533 L87.505403,70.652164 L87.5036479,70.652164 L87.7260743,70.4589201 L86.7216451,69.4362671 C86.7230812,69.4335309 86.7246768,69.4266904 86.7261128,69.4239542 L87.7442641,70.4373726 L88.6877414,69.6548207 L87.7442641,70.4515666 L87.9301513,70.652164 L87.9615846,70.652164 L87.9628611,70.653361 L87.9628611,70.6896156 L87.9301513,70.652164 L87.9301513,70.652164 Z M89.1369023,71.8405279 L88.7753398,70.0384011 L89.2252985,72.1743437 L89.1392957,71.842922 L89.1369023,71.8405279 L89.1369023,71.8405279 Z M92.1634333,69.6773943 C92.1634333,69.6773943 92.1645502,69.6791044 92.1648693,69.6799595 L91.4731774,70.3737561 L92.1634333,69.6773943 L92.1634333,69.6773943 Z M90.978542,67.7449562 L90.9944979,67.7449562 L90.9944979,67.756243 L90.5158184,68.1528204 L90.978542,67.7449562 L90.978542,67.7449562 Z M88.6957194,67.9334117 C88.6930069,67.9298204 88.6904539,67.9264002 88.6875818,67.9229799 C88.6883796,67.9252031 88.6891774,67.9274263 88.6899752,67.9296494 C88.69189,67.9308465 88.6938047,67.9320436 88.6957194,67.9334117 L88.6957194,67.9334117 Z" id="Logo" sketch:type="MSShapeGroup"></path>
            </g>
        </g>
    </g>
</svg>